# xmcd
#
# Track frame offsets:
#	150
#	16815
#	31932
#	45948
#	59609
#	76618
#	87590
#	102597
#	112262
#	120595
#	133769
#	148479
#	162973
#	177578
#
# Disc length: 2663 seconds
#
# Revision: 1
# Processed by: cddbd v1.5.1PL2 Copyright (c) Steve Scherf et al.
# Submitted via: audiograbber 1.83.01
#
DISCID=c30a650e
DTITLE=Various Artist - Stevenson - taste the music
DYEAR=2006
DGENRE=Country
TTITLE0=Kitty Wells - On Top Of Old Smokey
TTITLE1=Red Nash Orchestra - Paint Your Wagon: Wand'rin Star
TTITLE2=Jean Shepard - Tom Dooley
TTITLE3=Jack Fender,Guitar - Fine Country Singin'
TTITLE4=Janie Fricke - Blowin' In The Wind
TTITLE5=Roger Miller - King Of The Road
TTITLE6=Faron Young - It's Four In The Morning
TTITLE7=Dave Dudley - Truck Drivin' Son-Of-A-Gun
TTITLE8=Johnny Cash - Country Boy
TTITLE9=Jack Fender,Guitar - All That Country Lovin'
TTITLE10=Tony Joe White - Back To The Country
TTITLE11=Glen Campbell - Rhinestone Cowboy
TTITLE12=John Denver - Take Me Home , Country Roads
TTITLE13=Mantovani Orchetra - Smoke Gets In Your Eyes
EXTD=
EXTT0=
EXTT1=
EXTT2=
EXTT3=
EXTT4=
EXTT5=
EXTT6=
EXTT7=
EXTT8=
EXTT9=
EXTT10=
EXTT11=
EXTT12=
EXTT13=
PLAYORDER=
